#define image_width 20
#define image_height 23
static char image_bits[] = {
   0x00, 0x00, 0x00, 0x00, 0x00, 0x00, 0x00, 0x00, 0x00, 0x00, 0x00, 0x00,
   0xff, 0x3f, 0x00, 0x01, 0x60, 0x00, 0xfd, 0xa0, 0x00, 0xfd, 0x20, 0x01,
   0xfd, 0x20, 0x02, 0xfd, 0xe8, 0x07, 0xfd, 0xdc, 0x0f, 0xfd, 0x3e, 0x0c,
   0x01, 0x7f, 0x0c, 0x81, 0xff, 0x0c, 0x01, 0x00, 0x0c, 0x81, 0x0f, 0x0c,
   0xc1, 0x1f, 0x0c, 0xc1, 0x1f, 0x0c, 0xc1, 0x1f, 0x0c, 0x81, 0x0f, 0x0c,
   0x01, 0x00, 0x0c, 0xff, 0xff, 0x0f, 0xfe, 0xff, 0x0f};
