#define text_width 20
#define text_height 23
static unsigned char text_bits[] = {
  0x00, 0x00, 0x00, 0x00, 0x00, 0x00, 0x00, 0x00, 0x00, 0x00, 0x00, 0x00,
  0xff, 0x3f, 0x00, 0x01, 0x60, 0x00, 0x01, 0xa0, 0x00, 0x01, 0x20, 0x01,
  0x01, 0x20, 0x02, 0x01, 0xe0, 0x07, 0x01, 0xc0, 0x0f, 0x01, 0x00, 0x0c,
  0x7d, 0xf9, 0x0d, 0x11, 0x49, 0x0c, 0x11, 0x46, 0x0c, 0x11, 0x46, 0x0c,
  0x11, 0x49, 0x0c, 0x11, 0x49, 0x0c, 0x01, 0x00, 0x0c, 0x01, 0x00, 0x0c,
  0x01, 0x00, 0x0c, 0xff, 0xff, 0x0f, 0xfe, 0xff, 0x0f, };
